<svg width="7995" height="3582" viewBox="0 0 7995 3582" fill="none" xmlns="http://www.w3.org/2000/svg">
<circle cx="3997" cy="1882" r="1675" fill="#162CA2" stroke="black" stroke-width="50"/>
<circle cx="3981" cy="1882" r="1125" fill="white" stroke="black" stroke-width="50"/>
<path d="M2844.06 2481.84L2775.98 2522.88L2711.41 2652.27L2684.64 2607.88L2729.11 2524.91L2634.53 2524.76L2608.51 2481.6L2752.34 2485.34L2821.16 2443.86L2844.06 2481.84Z" fill="white"/>
<path d="M2699.5 2319.45C2707.43 2304.59 2708.55 2288.8 2702.86 2272.07C2697.18 2255.35 2686.79 2243.57 2671.69 2236.74C2656.59 2229.9 2640.68 2229.33 2623.95 2235.02L2623.41 2235.2C2606.68 2240.89 2594.36 2251.16 2586.43 2266.02C2578.5 2280.88 2577.38 2296.67 2583.07 2313.4C2588.75 2330.12 2599.14 2341.9 2614.24 2348.73C2629.34 2355.57 2645.25 2356.14 2661.98 2350.46L2662.52 2350.27C2679.25 2344.59 2691.57 2334.31 2699.5 2319.45ZM2688.48 2196.66C2714.12 2209.44 2731.88 2230.37 2741.77 2259.46C2751.65 2288.54 2750.42 2315.93 2738.06 2341.63C2725.46 2367.2 2705.44 2384.66 2677.99 2393.99L2677.44 2394.17C2649.99 2403.5 2623.45 2401.78 2597.81 2389C2571.93 2376.09 2554.05 2355.1 2544.16 2326.01C2534.28 2296.93 2535.63 2269.6 2548.23 2244.02C2560.59 2218.33 2580.49 2200.82 2607.94 2191.48L2608.49 2191.3C2635.94 2181.97 2662.6 2183.75 2688.48 2196.66Z" fill="white"/>
<path d="M2692.28 2037.57C2695.23 2064.87 2689.99 2086.97 2676.56 2103.87C2662.94 2120.79 2641.62 2130.82 2612.61 2133.96L2498.07 2146.33L2493.31 2102.24L2606.7 2089.99C2622.73 2088.25 2634.64 2083.2 2642.43 2074.83C2650 2066.28 2653.04 2055.14 2651.56 2041.4C2650.07 2027.65 2644.82 2017.5 2635.81 2010.94C2626.78 2004.2 2614.44 2001.67 2598.78 2003.36L2483.96 2015.77L2479.2 1971.67L2592.3 1959.45C2622.08 1956.23 2645.45 1961.62 2662.41 1975.63C2679.35 1989.44 2689.31 2010.09 2692.28 2037.57Z" fill="white"/>
<path d="M2581.14 1852.04L2585.43 1807.32C2586.44 1796.81 2584.65 1788.34 2580.06 1781.92C2575.48 1775.31 2568.9 1771.59 2560.29 1770.77L2559.72 1770.71C2550.36 1769.82 2542.99 1772.2 2537.63 1777.85C2532.07 1783.49 2528.77 1791.76 2527.73 1802.65L2523.52 1846.52L2581.14 1852.04ZM2680.12 1906.09L2479.44 1886.85L2488.23 1795.11C2490.67 1769.69 2499.33 1750.84 2514.2 1738.57C2526.76 1728.21 2542.6 1723.94 2561.72 1725.77L2562.29 1725.83C2593.06 1728.78 2612.42 1745.1 2620.38 1774.8L2696.75 1732.65L2691.8 1784.25L2623.46 1821.09L2620.13 1855.78L2684.35 1861.94L2680.12 1906.09Z" fill="white"/>
<path d="M2739.17 1472.99L2551.91 1398.32L2608.76 1255.74L2646.21 1270.67L2605.78 1372.06L2645.65 1387.95L2681.27 1298.6L2718.72 1313.53L2683.1 1402.88L2755.6 1431.79L2739.17 1472.99Z" fill="white"/>
<path d="M2744.81 1207.88L2767.54 1169.12C2772.88 1160.01 2774.82 1151.58 2773.36 1143.82C2771.99 1135.9 2767.58 1129.76 2760.13 1125.39L2759.63 1125.09C2751.52 1120.34 2743.83 1119.39 2736.59 1122.27C2729.17 1125.04 2722.7 1131.15 2717.16 1140.59L2694.87 1178.6L2744.81 1207.88ZM2811.82 1298.58L2637.91 1196.62L2684.52 1117.11C2697.44 1095.08 2713.22 1081.64 2731.88 1076.77C2747.64 1072.66 2763.8 1075.46 2780.37 1085.17L2780.86 1085.46C2807.53 1101.1 2818.22 1124.06 2812.93 1154.34L2899.95 1148.27L2873.73 1192.99L2796.23 1197.63L2778.6 1227.69L2834.25 1260.32L2811.82 1298.58Z" fill="white"/>
<path d="M2924.43 1119.14L2763.59 997.591L2790.33 962.207L2951.17 1083.76L2924.43 1119.14Z" fill="white"/>
<path d="M2982.54 1042.4L2836.16 903.784L2940.71 793.366L2969.36 820.495L2895.1 898.916L2924.8 927.035L2990.15 858.024L3018.8 885.153L2953.45 954.163L2984.19 983.272L3059.44 903.805L3088.09 930.934L2982.54 1042.4Z" fill="white"/>
<path d="M3116.82 904.151L2994.29 744.058L3026.76 719.203L3177.22 760.362L3101.78 661.79L3136.54 635.184L3259.07 795.277L3229.11 818.207L3073.69 775.772L3151.58 877.545L3116.82 904.151Z" fill="white"/>
<path d="M3320.56 713.348L3350.93 697.472C3366.93 689.112 3377.28 677.418 3381.99 662.39C3386.87 647.274 3385.18 631.803 3376.91 615.978L3376.64 615.468C3368.37 599.643 3356.59 589.335 3341.3 584.543C3326.19 579.662 3310.63 581.402 3294.63 589.762L3264.26 605.638L3320.56 713.348ZM3299.8 769.371L3206.41 590.705L3276.09 554.284C3303.83 539.787 3330.99 536.422 3357.58 544.188C3384.25 551.695 3404.21 568.125 3417.47 593.479L3417.73 593.989C3431.07 619.513 3433.26 645.452 3424.28 671.806C3415.48 698.072 3397.21 718.453 3369.48 732.95L3299.8 769.371Z" fill="white"/>
<path d="M3502.31 669.724L3437.34 478.88L3479.32 464.587L3531.3 617.261L3626.45 584.869L3639.44 623.037L3502.31 669.724Z" fill="white"/>
<path d="M3728.44 604.158L3714.08 525.978L3615.82 419.873L3666.8 410.507L3728.73 481.414L3762.26 392.972L3811.83 383.866L3757.54 517.116L3772.06 596.145L3728.44 604.158Z" fill="white"/>
<path d="M4197.08 594.035L4231.88 395.461L4272.16 402.52L4343.78 541.09L4365.21 418.825L4408.33 426.382L4373.53 624.956L4336.37 618.443L4262.32 475.355L4240.2 601.591L4197.08 594.035Z" fill="white"/>
<path d="M4419.89 638.66L4487.52 448.743L4630.77 499.756L4617.54 536.925L4515.8 500.695L4502.08 539.221L4591.61 571.104L4578.37 608.273L4488.84 576.39L4474.64 616.273L4577.74 652.987L4564.5 690.156L4419.89 638.66Z" fill="white"/>
<path d="M4602.3 709.928L4691.71 529.237L4731.46 548.906L4642.06 729.597L4602.3 709.928Z" fill="white"/>
<path d="M4767.3 808.342C4741.45 791.043 4725.75 768.756 4720.21 741.482C4714.67 714.207 4720.22 688.124 4736.88 663.232L4737.2 662.753C4753.33 638.658 4775.37 623.84 4803.34 618.298C4831.41 612.596 4857.98 618.127 4883.03 634.892C4897.55 644.609 4908.55 654.746 4916.04 665.303C4923.64 675.701 4929.45 687.905 4933.47 701.917L4891.51 714.385C4888.44 703.782 4884.55 694.936 4879.82 687.845C4875.09 680.754 4868.18 674.165 4859.09 668.079C4845.68 659.109 4830.86 656.58 4814.61 660.492C4798.52 664.511 4785.67 673.701 4776.06 688.062L4775.74 688.541C4765.49 703.859 4761.71 719.695 4764.39 736.048C4767.24 752.507 4776.08 765.703 4790.92 775.633C4804.64 784.817 4818.46 789.208 4832.35 788.806L4848.37 764.871L4811.27 740.044L4832.58 708.21L4905.34 756.903L4856.65 829.666C4823.89 833.389 4794.11 826.281 4767.3 808.342Z" fill="white"/>
<path d="M4873.02 880.392L5013.04 735.348L5044.95 766.152L4989.54 823.548L5048.38 880.355L5103.79 822.959L5135.7 853.763L4995.68 998.807L4963.77 968.003L5019.98 909.778L4961.13 852.971L4904.93 911.196L4873.02 880.392Z" fill="white"/>
<path d="M5083.73 1047.08L5114.86 1089.6C5127.23 1106.49 5139.3 1110.62 5151.07 1102L5151.53 1101.66C5163.31 1093.04 5162.73 1079.9 5149.8 1062.24L5119.51 1020.88L5083.73 1047.08ZM5149.25 999.097L5173.41 1032.09C5186 1049.29 5198.03 1053.69 5209.49 1045.29L5209.96 1044.95C5215.38 1040.98 5218.01 1035.96 5217.85 1029.89C5217.84 1023.71 5215.06 1016.82 5209.5 1009.23L5183.64 973.914L5149.25 999.097ZM5026.83 1035.2L5189.49 916.09L5244.79 991.607C5258.51 1010.35 5264.09 1028.04 5261.52 1044.68C5259.53 1057.56 5253.03 1068.03 5242.03 1076.08L5241.57 1076.42C5226.23 1087.65 5209.32 1089.09 5190.83 1080.74C5194.33 1093.64 5194.85 1104.92 5192.4 1114.57C5189.95 1124.22 5183.53 1132.84 5173.15 1140.44L5172.69 1140.78C5158.13 1151.45 5143.08 1154.13 5127.55 1148.85C5112.02 1143.56 5097.33 1131.47 5083.49 1112.57L5026.83 1035.2Z" fill="white"/>
<path d="M5221.19 1228.72C5215.15 1244.45 5215.98 1260.26 5223.67 1276.16C5231.37 1292.05 5243.13 1302.47 5258.96 1307.39C5274.78 1312.31 5290.64 1310.93 5306.54 1303.23L5307.06 1302.98C5322.96 1295.28 5333.92 1283.57 5339.96 1267.85C5346 1252.12 5345.17 1236.31 5337.48 1220.41C5329.78 1204.52 5318.02 1194.1 5302.19 1189.18C5286.37 1184.26 5270.51 1185.64 5254.61 1193.34L5254.09 1193.59C5238.19 1201.29 5227.23 1213 5221.19 1228.72ZM5247.22 1349.23C5220.2 1339.7 5200 1321.11 5186.61 1293.46C5173.23 1265.81 5171.08 1238.48 5180.19 1211.46C5189.55 1184.53 5207.27 1164.74 5233.37 1152.11L5233.89 1151.86C5259.98 1139.22 5286.53 1137.67 5313.55 1147.2C5340.82 1156.83 5361.15 1175.46 5374.54 1203.11C5387.92 1230.76 5389.94 1258.05 5380.58 1284.98C5371.48 1312 5353.88 1331.83 5327.78 1344.46L5327.26 1344.71C5301.17 1357.35 5274.49 1358.85 5247.22 1349.23Z" fill="white"/>
<path d="M5359.69 1440.97L5371.65 1484.27C5374.46 1494.45 5379.15 1501.72 5385.73 1506.08C5392.37 1510.62 5399.85 1511.74 5408.17 1509.44L5408.73 1509.29C5417.8 1506.79 5423.83 1501.93 5426.82 1494.73C5430 1487.48 5430.13 1478.58 5427.22 1468.03L5415.49 1425.56L5359.69 1440.97ZM5247.94 1425.81L5442.27 1372.15L5466.8 1460.99C5473.6 1485.6 5472.24 1506.3 5462.73 1523.06C5454.69 1537.23 5441.41 1546.87 5422.91 1551.98L5422.35 1552.14C5392.55 1560.36 5368.64 1552.03 5350.61 1527.13L5294.32 1593.76L5280.52 1543.79L5331.21 1484.98L5321.93 1451.39L5259.75 1468.56L5247.94 1425.81Z" fill="white"/>
<path d="M5299.84 1627.51L5500.47 1607.78L5504.81 1651.92L5425.42 1659.73L5433.42 1741.13L5512.81 1733.32L5517.16 1777.46L5316.52 1797.19L5312.18 1753.05L5392.72 1745.13L5384.72 1663.73L5304.18 1671.65L5299.84 1627.51Z" fill="white"/>
<path d="M5368.87 1904.08C5355.62 1914.49 5348.23 1928.49 5346.69 1946.08C5345.14 1963.68 5349.9 1978.65 5360.96 1990.99C5372.02 2003.33 5386.35 2010.27 5403.95 2011.81L5404.52 2011.86C5422.12 2013.41 5437.54 2008.98 5450.79 1998.57C5464.03 1988.17 5471.43 1974.17 5472.97 1956.57C5474.51 1938.98 5469.75 1924.01 5458.69 1911.67C5447.63 1899.33 5433.3 1892.38 5415.71 1890.84L5415.13 1890.79C5397.54 1889.25 5382.12 1893.68 5368.87 1904.08ZM5329.43 2020.89C5311.13 1998.86 5303.31 1972.54 5306 1941.94C5308.68 1911.33 5320.85 1886.77 5342.52 1868.24C5364.37 1849.91 5389.73 1842.02 5418.61 1844.55L5419.18 1844.6C5448.06 1847.13 5471.66 1859.41 5489.96 1881.45C5508.44 1903.69 5516.34 1930.11 5513.66 1960.72C5510.98 1991.32 5498.72 2015.78 5476.87 2034.11C5455.2 2052.64 5429.93 2060.64 5401.05 2058.1L5400.47 2058.05C5371.59 2055.52 5347.91 2043.14 5329.43 2020.89Z" fill="white"/>
<path d="M5330.51 2155.03C5315.49 2162.66 5305.52 2174.95 5300.58 2191.91C5295.65 2208.88 5297.41 2224.48 5305.86 2238.74C5314.31 2252.99 5327.02 2262.59 5343.98 2267.52L5344.53 2267.68C5361.49 2272.62 5377.48 2271.27 5392.5 2263.64C5407.51 2256.01 5417.49 2243.71 5422.42 2226.75C5427.36 2209.79 5425.6 2194.18 5417.15 2179.93C5408.69 2165.67 5395.99 2156.08 5379.03 2151.14L5378.47 2150.98C5361.51 2146.05 5345.52 2147.4 5330.51 2155.03ZM5269.12 2261.94C5255.44 2236.77 5252.9 2209.44 5261.48 2179.94C5270.06 2150.44 5286.77 2128.71 5311.63 2114.74C5336.62 2101.02 5363.03 2098.2 5390.87 2106.3L5391.42 2106.46C5419.26 2114.56 5440.02 2131.19 5453.69 2156.36C5467.5 2181.77 5470.11 2209.23 5461.53 2238.73C5452.95 2268.22 5436.17 2289.84 5411.18 2303.56C5386.32 2317.53 5359.97 2320.46 5332.14 2312.37L5331.58 2312.21C5303.74 2304.11 5282.92 2287.36 5269.12 2261.94Z" fill="white"/>
<path d="M5234.51 2377.03L5218.95 2407.57C5210.76 2423.65 5209.09 2439.18 5213.96 2454.15C5218.74 2469.3 5229.08 2480.93 5244.99 2489.04L5245.51 2489.3C5261.42 2497.4 5276.99 2498.98 5292.23 2494.03C5307.37 2489.25 5319.05 2478.82 5327.24 2462.74L5342.8 2432.2L5234.51 2377.03ZM5218.97 2319.34L5398.6 2410.86L5362.91 2480.92C5348.7 2508.8 5328.51 2527.28 5302.34 2536.36C5276.25 2545.69 5250.46 2543.86 5224.97 2530.87L5224.46 2530.61C5198.79 2517.54 5181.99 2497.66 5174.03 2470.98C5165.99 2444.47 5169.07 2417.28 5183.28 2389.39L5218.97 2319.34Z" fill="white"/>
<path d="M4924.66 2802.82C4948.67 2780.14 4976.78 2768.38 5008.99 2767.53L5011.5 2808.34C4985.92 2810.06 4965.73 2817.91 4950.93 2831.88C4944.37 2838.08 4940.33 2844.15 4938.8 2850.08C4937.41 2856.15 4938.75 2861.35 4942.84 2865.68L4943.24 2866.1C4947.19 2870.28 4952.31 2871.79 4958.59 2870.61C4965 2869.57 4975.59 2864.98 4990.36 2856.84C5000.71 2851.02 5009.39 2846.65 5016.4 2843.73C5023.54 2840.94 5031.07 2838.99 5038.98 2837.85C5046.75 2836.85 5054.06 2837.74 5060.91 2840.51C5067.75 2843.56 5074.53 2848.64 5081.25 2855.76L5081.65 2856.18C5094.17 2869.44 5099.51 2884.6 5097.67 2901.66C5095.69 2918.85 5087.16 2934.57 5072.08 2948.81C5051.29 2968.45 5027.28 2979.38 5000.05 2981.6L4993.86 2941.49C5016.77 2938.07 5034.02 2930.88 5045.61 2919.94C5051.61 2914.27 5055.16 2908.67 5056.27 2903.13C5057.24 2897.73 5055.94 2893.14 5052.38 2889.37L5051.99 2888.95C5047.51 2884.21 5042.12 2882.56 5035.83 2884.01C5029.54 2885.46 5018.33 2890.64 5002.18 2899.55C4982.31 2910.4 4965.51 2916.1 4951.78 2916.66C4938.18 2917.36 4925.64 2911.64 4914.17 2899.49L4913.78 2899.08C4900.33 2884.84 4894.73 2868.99 4897 2851.54C4899.25 2834.35 4908.47 2818.11 4924.66 2802.82Z" fill="white"/>
<path d="M4771.85 2926.56C4794.37 2910.85 4816.26 2904.81 4837.54 2908.46C4858.93 2912.27 4877.97 2926.13 4894.67 2950.07L4960.6 3044.54L4924.23 3069.92L4858.96 2976.39C4849.73 2963.17 4839.57 2955.16 4828.49 2952.36C4817.36 2949.82 4806.12 2952.51 4794.79 2960.43C4783.45 2968.34 4777.07 2977.82 4775.66 2988.88C4774.09 3000.04 4777.8 3012.08 4786.81 3024.99L4852.91 3119.7L4816.54 3145.08L4751.43 3051.79C4734.29 3027.23 4727.78 3004.15 4731.9 2982.54C4735.86 2961.04 4749.18 2942.38 4771.85 2926.56Z" fill="white"/>
<path d="M4665.9 3111.17L4634.4 3126.73C4624.76 3131.5 4618.37 3137.86 4615.24 3145.83C4612.11 3153.8 4612.5 3161.75 4616.41 3169.67L4616.67 3170.18C4621.01 3178.96 4627.16 3184.27 4635.14 3186.11C4643.2 3188.13 4652.31 3186.63 4662.47 3181.61L4693.19 3166.43L4665.9 3111.17ZM4661.4 3001.93L4750.69 3182.68L4676.84 3219.16C4655.49 3229.7 4635.78 3232.27 4617.68 3226.86C4599.68 3221.62 4586.04 3209.62 4576.77 3190.86L4576.52 3190.34C4566.57 3170.2 4565.71 3151.13 4573.96 3133.14C4582.29 3115.32 4597.04 3101.18 4618.21 3090.72L4648.42 3075.8L4621.64 3021.57L4661.4 3001.93Z" fill="white"/>
<path d="M4486.7 3084.39L4549.6 3275.93L4405.12 3323.37L4392.81 3285.88L4495.42 3252.19L4482.66 3213.34L4392.37 3242.99L4380.06 3205.5L4470.35 3175.85L4457.15 3135.63L4353.17 3169.77L4340.86 3132.28L4486.7 3084.39Z" fill="white"/>
<path d="M4276.21 3251.47L4231.93 3259.07C4221.53 3260.85 4213.83 3264.81 4208.84 3270.92C4203.66 3277.07 4201.8 3284.4 4203.26 3292.92L4203.36 3293.49C4204.95 3302.76 4209.18 3309.24 4216.05 3312.93C4222.95 3316.81 4231.79 3317.83 4242.58 3315.98L4286.01 3308.52L4276.21 3251.47ZM4302.39 3141.78L4336.49 3340.47L4245.66 3356.06C4220.49 3360.38 4200.04 3356.98 4184.3 3345.85C4170.99 3336.45 4162.72 3322.28 4159.47 3303.36L4159.37 3302.79C4154.14 3272.32 4164.81 3249.36 4191.38 3233.89L4130.66 3171.26L4181.75 3162.49L4235.24 3218.76L4269.59 3212.86L4258.67 3149.28L4302.39 3141.78Z" fill="white"/>
<path d="M4096.1 3173.76L4098.81 3375.34L4054.46 3375.93L4053.39 3296.17L3971.6 3297.26L3972.67 3377.03L3928.33 3377.63L3925.62 3176.05L3969.97 3175.45L3971.05 3256.37L4052.84 3255.27L4051.75 3174.35L4096.1 3173.76Z" fill="white"/>
<path d="M3877.26 3172.07L3849.65 3371.77L3699.02 3350.94L3704.42 3311.86L3811.41 3326.65L3817.01 3286.14L3722.86 3273.12L3728.27 3234.04L3822.41 3247.06L3828.21 3205.12L3719.8 3190.13L3725.21 3151.05L3877.26 3172.07Z" fill="white"/>
<path d="M3614.79 3229.73L3571.67 3217.11C3561.53 3214.15 3552.88 3214.32 3545.71 3217.62C3538.36 3220.87 3533.47 3226.64 3531.04 3234.93L3530.88 3235.49C3528.24 3244.51 3529.19 3252.2 3533.74 3258.53C3538.24 3265.04 3545.74 3269.84 3556.24 3272.91L3598.53 3285.29L3614.79 3229.73ZM3686.47 3142.68L3629.85 3336.17L3541.4 3310.28C3516.89 3303.11 3500.01 3291.07 3490.76 3274.16C3482.94 3259.86 3481.72 3243.51 3487.12 3225.08L3487.28 3224.53C3495.96 3194.86 3515.63 3178.91 3546.29 3176.68L3519.25 3093.74L3569 3108.3L3592.34 3182.35L3625.79 3192.14L3643.91 3130.22L3686.47 3142.68Z" fill="white"/>
<path d="M3413.44 3108.19C3408.42 3092.11 3397.96 3080.23 3382.05 3072.53C3366.15 3064.84 3350.47 3063.97 3335.01 3069.93C3319.54 3075.89 3307.96 3086.82 3300.27 3102.72L3300.02 3103.23C3292.33 3119.14 3290.99 3135.13 3296.01 3151.2C3301.03 3167.28 3311.49 3179.17 3327.39 3186.86C3343.29 3194.55 3358.98 3195.42 3374.44 3189.46C3389.91 3183.51 3401.48 3172.58 3409.18 3156.68L3409.43 3156.16C3417.12 3140.26 3418.46 3124.27 3413.44 3108.19ZM3318.25 3029.83C3345.35 3020.55 3372.73 3022.59 3400.38 3035.97C3428.04 3049.35 3446.68 3069.46 3456.3 3096.29C3465.67 3123.22 3464.04 3149.73 3451.42 3175.83L3451.17 3176.35C3438.54 3202.45 3418.68 3220.14 3391.58 3229.43C3364.22 3238.8 3336.72 3236.8 3309.06 3223.42C3281.41 3210.05 3262.9 3189.89 3253.53 3162.97C3243.9 3136.13 3245.4 3109.66 3258.03 3083.56L3258.28 3083.04C3270.9 3056.94 3290.89 3039.21 3318.25 3029.83Z" fill="white"/>
<path d="M3269.58 2969.95L3153.97 3135.12L3029.39 3047.92L3052.02 3015.59L3140.5 3077.52L3163.95 3044.02L3086.09 2989.52L3108.71 2957.2L3186.57 3011.69L3210.85 2977.01L3121.19 2914.25L3143.82 2881.93L3269.58 2969.95Z" fill="white"/>
<path d="M3062.83 2805.2C3087.01 2827.7 3100.56 2854.99 3103.48 2887.08L3062.91 2892.21C3059.55 2866.79 3050.42 2847.15 3035.52 2833.29C3028.91 2827.14 3022.6 2823.5 3016.58 2822.36C3010.43 2821.35 3005.33 2823.03 3001.28 2827.39L3000.88 2827.81C2996.96 2832.03 2995.79 2837.23 2997.37 2843.43C2998.82 2849.76 3004.08 2860.03 3013.15 2874.24C3019.63 2884.19 3024.55 2892.58 3027.92 2899.38C3031.16 2906.33 3033.6 2913.71 3035.24 2921.54C3036.74 2929.22 3036.32 2936.58 3033.99 2943.59C3031.39 2950.61 3026.76 2957.71 3020.09 2964.87L3019.69 2965.3C3007.27 2978.65 2992.48 2984.96 2975.34 2984.22C2958.06 2983.34 2941.82 2975.84 2926.64 2961.72C2905.7 2942.23 2893.25 2918.97 2889.28 2891.95L2928.91 2883.18C2933.8 2905.83 2942.08 2922.58 2953.75 2933.44C2959.79 2939.06 2965.61 2942.25 2971.21 2943C2976.66 2943.62 2981.16 2942.03 2984.69 2938.23L2985.08 2937.81C2989.53 2933.03 2990.82 2927.55 2988.97 2921.37C2987.12 2915.19 2981.23 2904.33 2971.29 2888.79C2959.19 2869.66 2952.42 2853.26 2950.98 2839.59C2949.4 2826.07 2954.3 2813.19 2965.68 2800.96L2966.08 2800.54C2979.42 2786.2 2994.87 2779.6 3012.43 2780.73C3029.73 2781.87 3046.53 2790.03 3062.83 2805.2Z" fill="white"/>
<path d="M3981 828.294L4217.49 1540.11L4223.17 1557.23H4241.21H5004.93L4387.55 1995.91L4372.48 2006.62L4378.31 2024.17L4614.42 2734.87L3995.48 2295.08L3981 2284.79L3966.52 2295.08L3347.58 2734.87L3583.69 2024.17L3589.52 2006.62L3574.45 1995.91L2957.07 1557.23H3720.79H3738.83L3744.51 1540.11L3981 828.294Z" fill="#C31D10" stroke="black" stroke-width="50"/>
<path fill-rule="evenodd" clip-rule="evenodd" d="M5755.73 1498H7595C7815.92 1498 7995 1318.91 7995 1098V1038L5586.74 1038C5662.87 1180.94 5720.3 1335.37 5755.73 1498Z" fill="#C31D10"/>
<path fill-rule="evenodd" clip-rule="evenodd" d="M5792.79 2021C5796.24 1975.45 5798 1929.43 5798 1883C5798 1773.09 5788.15 1665.48 5769.28 1561L7595 1561V1621C7595 1841.91 7415.91 2021 7195 2021H5792.79Z" fill="#C31D10"/>
<path fill-rule="evenodd" clip-rule="evenodd" d="M5672.76 2544H6794C7014.92 2544 7194 2364.91 7194 2144V2084H5786.9C5769.05 2244.66 5730.06 2398.95 5672.76 2544Z" fill="#C31D10"/>
<path fill-rule="evenodd" clip-rule="evenodd" d="M2408.26 1038L0 1038V1098C0 1318.91 179.086 1498 400 1498H2239.27C2274.7 1335.37 2332.13 1180.94 2408.26 1038Z" fill="#C31D10"/>
<path fill-rule="evenodd" clip-rule="evenodd" d="M2226.72 1561H400V1621C400 1841.91 579.086 2021 800 2021H2203.21C2199.76 1975.45 2198 1929.43 2198 1883C2198 1773.09 2207.85 1665.48 2226.72 1561Z" fill="#C31D10"/>
<path fill-rule="evenodd" clip-rule="evenodd" d="M2209.1 2084L800 2084V2144C800 2364.91 979.086 2544 1200 2544H2323.24C2265.95 2398.95 2226.95 2244.66 2209.1 2084Z" fill="#C31D10"/>
</svg>
